<svg xmlns="http://www.w3.org/2000/svg" width="800" height="250" viewBox="0 0 800 250">
  <style>
    .light { display: block; }
    .dark { display: none; }
    @media (prefers-color-scheme: dark) {
      .light { display: none; }
      .dark { display: block; }
    }
    text { font-family: -apple-system, BlinkMacSystemFont, "Segoe UI", Helvetica, Arial, sans-serif; }
  </style>
  <g class="light">
    <rect width="800" height="250" fill="#ffffff" rx="6" />
    
    <text x="20" y="24" fill="#1f2328" font-size="16" font-weight="600">Languages</text>
    <circle cx="125" cy="125" r="80" fill="none"
      stroke="#dea584" stroke-width="24"
      stroke-dasharray="206.08847807549043 502.6548245743669"
      stroke-dashoffset="0"
      transform="rotate(-90 125 125)" />
    <circle cx="125" cy="125" r="80" fill="none"
      stroke="#DA5B0B" stroke-width="24"
      stroke-dasharray="155.82299561805374 502.6548245743669"
      stroke-dashoffset="-206.08847807549043"
      transform="rotate(-90 125 125)" />
    <circle cx="125" cy="125" r="80" fill="none"
      stroke="#3572A5" stroke-width="24"
      stroke-dasharray="40.21238596594935 502.6548245743669"
      stroke-dashoffset="-361.91147369354417"
      transform="rotate(-90 125 125)" />
    <circle cx="125" cy="125" r="80" fill="none"
      stroke="#555555" stroke-width="24"
      stroke-dasharray="30.159289474462014 502.6548245743669"
      stroke-dashoffset="-402.1238596594935"
      transform="rotate(-90 125 125)" />
    <circle cx="125" cy="125" r="80" fill="none"
      stroke="#c22d40" stroke-width="24"
      stroke-dasharray="25.132741228718345 502.6548245743669"
      stroke-dashoffset="-432.28314913395553"
      transform="rotate(-90 125 125)" />
    <circle cx="125" cy="125" r="80" fill="none"
      stroke="#3178c6" stroke-width="24"
      stroke-dasharray="15.079644737231007 502.6548245743669"
      stroke-dashoffset="-457.41589036267385"
      transform="rotate(-90 125 125)" />
    <circle cx="125" cy="125" r="80" fill="none"
      stroke="#f1e05a" stroke-width="24"
      stroke-dasharray="5.026548245743669 502.6548245743669"
      stroke-dashoffset="-472.4955350999048"
      transform="rotate(-90 125 125)" />
    <circle cx="125" cy="125" r="80" fill="none"
      stroke="#e34c26" stroke-width="24"
      stroke-dasharray="5.026548245743669 502.6548245743669"
      stroke-dashoffset="-477.5220833456485"
      transform="rotate(-90 125 125)" />
    <rect x="280" y="30" width="12" height="12" rx="2" fill="#dea584" />
    <text x="300" y="41" fill="#1f2328" font-size="13">Rust</text>
    <text x="480" y="41" fill="#656d76" font-size="13" text-anchor="end">41%</text>
    <rect x="280" y="58" width="12" height="12" rx="2" fill="#DA5B0B" />
    <text x="300" y="69" fill="#1f2328" font-size="13">Jupyter Notebook</text>
    <text x="480" y="69" fill="#656d76" font-size="13" text-anchor="end">31%</text>
    <rect x="280" y="86" width="12" height="12" rx="2" fill="#3572A5" />
    <text x="300" y="97" fill="#1f2328" font-size="13">Python</text>
    <text x="480" y="97" fill="#656d76" font-size="13" text-anchor="end">8%</text>
    <rect x="280" y="114" width="12" height="12" rx="2" fill="#555555" />
    <text x="300" y="125" fill="#1f2328" font-size="13">C</text>
    <text x="480" y="125" fill="#656d76" font-size="13" text-anchor="end">6%</text>
    <rect x="280" y="142" width="12" height="12" rx="2" fill="#c22d40" />
    <text x="300" y="153" fill="#1f2328" font-size="13">Scala</text>
    <text x="480" y="153" fill="#656d76" font-size="13" text-anchor="end">5%</text>
    <rect x="280" y="170" width="12" height="12" rx="2" fill="#3178c6" />
    <text x="300" y="181" fill="#1f2328" font-size="13">TypeScript</text>
    <text x="480" y="181" fill="#656d76" font-size="13" text-anchor="end">3%</text>
    <rect x="280" y="198" width="12" height="12" rx="2" fill="#f1e05a" />
    <text x="300" y="209" fill="#1f2328" font-size="13">JavaScript</text>
    <text x="480" y="209" fill="#656d76" font-size="13" text-anchor="end">1%</text>
    <rect x="280" y="226" width="12" height="12" rx="2" fill="#e34c26" />
    <text x="300" y="237" fill="#1f2328" font-size="13">HTML</text>
    <text x="480" y="237" fill="#656d76" font-size="13" text-anchor="end">1%</text>
  </g>
  <g class="dark">
    <rect width="800" height="250" fill="#0d1117" rx="6" />
    
    <text x="20" y="24" fill="#e6edf3" font-size="16" font-weight="600">Languages</text>
    <circle cx="125" cy="125" r="80" fill="none"
      stroke="#dea584" stroke-width="24"
      stroke-dasharray="206.08847807549043 502.6548245743669"
      stroke-dashoffset="0"
      transform="rotate(-90 125 125)" />
    <circle cx="125" cy="125" r="80" fill="none"
      stroke="#DA5B0B" stroke-width="24"
      stroke-dasharray="155.82299561805374 502.6548245743669"
      stroke-dashoffset="-206.08847807549043"
      transform="rotate(-90 125 125)" />
    <circle cx="125" cy="125" r="80" fill="none"
      stroke="#3572A5" stroke-width="24"
      stroke-dasharray="40.21238596594935 502.6548245743669"
      stroke-dashoffset="-361.91147369354417"
      transform="rotate(-90 125 125)" />
    <circle cx="125" cy="125" r="80" fill="none"
      stroke="#555555" stroke-width="24"
      stroke-dasharray="30.159289474462014 502.6548245743669"
      stroke-dashoffset="-402.1238596594935"
      transform="rotate(-90 125 125)" />
    <circle cx="125" cy="125" r="80" fill="none"
      stroke="#c22d40" stroke-width="24"
      stroke-dasharray="25.132741228718345 502.6548245743669"
      stroke-dashoffset="-432.28314913395553"
      transform="rotate(-90 125 125)" />
    <circle cx="125" cy="125" r="80" fill="none"
      stroke="#3178c6" stroke-width="24"
      stroke-dasharray="15.079644737231007 502.6548245743669"
      stroke-dashoffset="-457.41589036267385"
      transform="rotate(-90 125 125)" />
    <circle cx="125" cy="125" r="80" fill="none"
      stroke="#f1e05a" stroke-width="24"
      stroke-dasharray="5.026548245743669 502.6548245743669"
      stroke-dashoffset="-472.4955350999048"
      transform="rotate(-90 125 125)" />
    <circle cx="125" cy="125" r="80" fill="none"
      stroke="#e34c26" stroke-width="24"
      stroke-dasharray="5.026548245743669 502.6548245743669"
      stroke-dashoffset="-477.5220833456485"
      transform="rotate(-90 125 125)" />
    <rect x="280" y="30" width="12" height="12" rx="2" fill="#dea584" />
    <text x="300" y="41" fill="#e6edf3" font-size="13">Rust</text>
    <text x="480" y="41" fill="#8b949e" font-size="13" text-anchor="end">41%</text>
    <rect x="280" y="58" width="12" height="12" rx="2" fill="#DA5B0B" />
    <text x="300" y="69" fill="#e6edf3" font-size="13">Jupyter Notebook</text>
    <text x="480" y="69" fill="#8b949e" font-size="13" text-anchor="end">31%</text>
    <rect x="280" y="86" width="12" height="12" rx="2" fill="#3572A5" />
    <text x="300" y="97" fill="#e6edf3" font-size="13">Python</text>
    <text x="480" y="97" fill="#8b949e" font-size="13" text-anchor="end">8%</text>
    <rect x="280" y="114" width="12" height="12" rx="2" fill="#555555" />
    <text x="300" y="125" fill="#e6edf3" font-size="13">C</text>
    <text x="480" y="125" fill="#8b949e" font-size="13" text-anchor="end">6%</text>
    <rect x="280" y="142" width="12" height="12" rx="2" fill="#c22d40" />
    <text x="300" y="153" fill="#e6edf3" font-size="13">Scala</text>
    <text x="480" y="153" fill="#8b949e" font-size="13" text-anchor="end">5%</text>
    <rect x="280" y="170" width="12" height="12" rx="2" fill="#3178c6" />
    <text x="300" y="181" fill="#e6edf3" font-size="13">TypeScript</text>
    <text x="480" y="181" fill="#8b949e" font-size="13" text-anchor="end">3%</text>
    <rect x="280" y="198" width="12" height="12" rx="2" fill="#f1e05a" />
    <text x="300" y="209" fill="#e6edf3" font-size="13">JavaScript</text>
    <text x="480" y="209" fill="#8b949e" font-size="13" text-anchor="end">1%</text>
    <rect x="280" y="226" width="12" height="12" rx="2" fill="#e34c26" />
    <text x="300" y="237" fill="#e6edf3" font-size="13">HTML</text>
    <text x="480" y="237" fill="#8b949e" font-size="13" text-anchor="end">1%</text>
  </g>
</svg>